<svg xmlns="http://www.w3.org/2000/svg" width="17.929" height="19.894" viewBox="0 0 17.929 19.894">
  <path id="share_FILL0_wght400_GRAD0_opsz48" d="M135.094,195.894a2.791,2.791,0,0,1-2.8-3.249,2.068,2.068,0,0,1,.112-.432l-7.535-4.377a2.842,2.842,0,0,1-.92.684,2.572,2.572,0,0,1-1.119.261,2.835,2.835,0,1,1,1.094-5.446,3,3,0,0,1,.945.647l7.535-4.327a1.77,1.77,0,0,1-.112-.4,2.537,2.537,0,0,1-.037-.425,2.84,2.84,0,1,1,2.835,2.835,3.324,3.324,0,0,1-1.111-.187,2.127,2.127,0,0,1-.9-.609l-7.535,4.178a4.59,4.59,0,0,1,.087.46,3.2,3.2,0,0,1,.037.441,1.964,1.964,0,0,1-.037.373q-.037.193-.087.392l7.535,4.277a2.96,2.96,0,0,1,.87-.56,2.9,2.9,0,0,1,1.144-.211,2.835,2.835,0,1,1,0,5.67Zm0-15.716a1.318,1.318,0,1,0-.957-.385A1.3,1.3,0,0,0,135.1,180.178Zm-12.26,7.112a1.318,1.318,0,1,0-.957-.385A1.3,1.3,0,0,0,122.836,187.29ZM135.1,194.4a1.318,1.318,0,1,0-.957-.385A1.3,1.3,0,0,0,135.1,194.4ZM135.094,178.835ZM122.835,185.947ZM135.094,193.059Z" transform="translate(-120 -176)"/>
</svg>
